# Blender v2.65 (sub 0) OBJ File: ''
# www.blender.org
o Ramp_Cube
v 3.010000 0.000000 0.000001
v -0.021348 0.000000 -0.000001
v -0.021348 0.000000 -1.000001
v 3.010001 0.000000 -0.999999
v -0.021349 2.000000 -0.000002
v -0.021347 2.000000 -1.000001
vn 0.000000 -1.000000 0.000000
vn 0.000001 -0.000000 -1.000000
vn -1.000000 -0.000000 -0.000001
vn 0.550710 0.834697 0.000001
vn -0.000001 0.000000 1.000000
s off
f 1//1 2//1 3//1
f 1//1 3//1 4//1
f 3//2 6//2 4//2
f 2//3 5//3 6//3
f 2//3 6//3 3//3
f 5//4 1//4 4//4
f 5//4 4//4 6//4
f 1//5 5//5 2//5
